<svg width="266" height="296" viewBox="0 0 266 296" fill="none" xmlns="http://www.w3.org/2000/svg">
<path fill-rule="evenodd" clip-rule="evenodd" d="M2.71669e-07 295.868V-2.78684e-05H105.654C127.666 -2.78684e-05 148.235 3.87443 167.362 11.6234C186.641 19.2314 203.567 29.8685 218.14 43.5348C232.865 57.0602 244.326 72.7693 252.523 90.6623C260.872 108.414 265.047 127.505 265.047 147.934C265.047 168.363 260.872 187.524 252.523 205.417C244.326 223.169 232.865 238.878 218.14 252.544C203.567 266.07 186.641 276.707 167.362 284.456C148.235 292.064 127.666 295.868 105.654 295.868H2.71669e-07ZM76.8251 106.94C98.0398 106.94 115.238 90.9805 115.238 71.2933C115.238 51.6062 98.0398 35.6466 76.8251 35.6466C55.6104 35.6466 38.4125 51.6062 38.4125 71.2933C38.4125 90.9805 55.6104 106.94 76.8251 106.94Z" fill="white"/>
</svg>
