<svg width="324" height="324" viewBox="0 0 324 324" fill="none" xmlns="http://www.w3.org/2000/svg">
<path fill-rule="evenodd" clip-rule="evenodd" d="M23.6135 277.6L46.1685 275.257C75.5801 305.333 116.61 324 162 324C251.47 324 324 251.47 324 162C324 126.53 312.6 93.7216 293.265 67.0401L299.725 46L277.414 48.3179C248.032 18.4913 207.176 0 162 0C72.5299 0 0 72.5299 0 162C0 197.133 11.1837 229.654 30.1853 256.196L23.6135 277.6ZM64.3494 273.368L77.2782 272.025C79.6914 273.886 82.1675 275.669 84.7029 277.371C106.798 292.204 133.388 300.857 162 300.857C190.612 300.857 217.202 292.204 239.297 277.371C263.891 260.861 282.915 236.695 292.956 208.286C298.073 193.809 300.857 178.229 300.857 162C300.857 146.914 298.451 132.39 294.003 118.791C291.431 110.93 288.177 103.378 284.31 96.2045L288.017 84.1309C294.655 94.8509 299.964 106.481 303.712 118.791C307.875 132.461 310.114 146.969 310.114 162C310.114 178.164 307.525 193.723 302.739 208.286C292.273 240.128 271.302 267.203 243.926 285.413C220.462 301.02 192.293 310.114 162 310.114C131.707 310.114 103.538 301.02 80.0743 285.413C74.5618 281.746 69.309 277.72 64.3494 273.368ZM259.171 50.2133L246.184 51.5626C228.647 38.1745 207.828 28.8685 185.143 25.0628C177.617 23.8001 169.885 23.1429 162 23.1429C154.115 23.1429 146.383 23.8001 138.857 25.0628C95.4612 32.3432 58.8905 59.7521 39.0736 97.3611C28.9008 116.667 23.1429 138.661 23.1429 162C23.1429 178.229 25.9271 193.809 31.0441 208.286C33.3141 214.708 36.0431 220.914 39.1918 226.863L35.4597 239.018C29.6151 229.436 24.8282 219.137 21.2614 208.286C16.475 193.723 13.8857 178.164 13.8857 162C13.8857 138.825 19.2081 116.894 28.6971 97.3611C49.2144 55.1274 89.2112 24.1083 137.006 15.9857C145.131 14.6048 153.481 13.8857 162 13.8857C170.519 13.8857 178.869 14.6048 186.994 15.9857C214.333 20.6319 239.121 32.7699 259.171 50.2133ZM52.1735 246.978L87.9691 68H151.217L137.924 134.464H196.348L209.641 68H264.203H272.889L271.236 76.2654L235.369 255.6H172.121L185.95 186.456H127.526L113.697 255.6H59.43H50.4491L52.1735 246.978Z" fill="white"/>
</svg>
